<?xml version="1.0" standalone="no"?>
<!DOCTYPE svg PUBLIC "-//W3C//DTD SVG 20010904//EN"
 "http://www.w3.org/TR/2001/REC-SVG-20010904/DTD/svg10.dtd">
<svg version="1.0" xmlns="http://www.w3.org/2000/svg"
 width="400.000000pt" height="400.000000pt" viewBox="0 0 400.000000 400.000000"
 preserveAspectRatio="xMidYMid meet">
<metadata>
Created by potrace 1.14, written by Peter Selinger 2001-2017
</metadata>
<g transform="translate(0.000000,400.000000) scale(0.100000,-0.100000)"
fill="#000000" stroke="none">
<path d="M255 3986 c-97 -31 -176 -99 -222 -194 l-28 -57 0 -1740 0 -1740 29
-60 c36 -72 103 -140 171 -171 l50 -24 1751 0 1750 0 51 25 c65 33 135 102
167 167 l26 52 0 1751 0 1751 -26 52 c-34 69 -100 134 -172 169 l-57 28 -1725
2 c-1372 1 -1733 -1 -1765 -11z"/>
</g>
</svg>
